<svg xmlns="http://www.w3.org/2000/svg" width="40" height="20" viewBox="0 0 40 20"><defs><style>.cls-1{fill:#464646;}.cls-2{fill:none;}</style></defs><title>16+</title><g id="Layer_2" data-name="Layer 2"><g id="Layer_7_copy" data-name="Layer 7 copy"><path class="cls-1" d="M4,5.865l.945,1.224Q7.224,5.243,7.5,5t.5-.473Q7.92,5.768,7.921,7.165V18.358h1.74V2.653h-1.5Zm29.054,4v-4.6H31.56v4.6h-4.4v1.482h4.4v4.576h1.494V11.343H37.48V9.861ZM22.36,16.1a2.984,2.984,0,0,1-2.369.961,3.039,3.039,0,0,1-1.8-.558,3.626,3.626,0,0,1-1.219-1.515,4.964,4.964,0,0,1-.43-2.063,2.531,2.531,0,0,1,.478-1.45,3.29,3.29,0,0,1,1.284-1.1,3.963,3.963,0,0,1,1.772-.4,2.954,2.954,0,0,1,2.342.892A3.584,3.584,0,0,1,23.2,13.32,4.089,4.089,0,0,1,22.36,16.1ZM20.41,8.572a4.114,4.114,0,0,0-3.738,1.847h-.129A8.067,8.067,0,0,1,18,5.473,4.771,4.771,0,0,1,21.86,3.9a6.154,6.154,0,0,1,1.891.268V2.631a7.139,7.139,0,0,0-1.912-.2,6.352,6.352,0,0,0-5.322,2.294q-1.8,2.294-1.8,6.923a8.1,8.1,0,0,0,1.429,5.1,4.645,4.645,0,0,0,3.867,1.832,4.765,4.765,0,0,0,3.615-1.4,5.353,5.353,0,0,0,1.337-3.851,4.817,4.817,0,0,0-1.22-3.47A4.388,4.388,0,0,0,20.41,8.572Z"/><rect class="cls-2" width="40" height="20"/></g></g></svg>