<svg xmlns="http://www.w3.org/2000/svg" width="40" height="20" viewBox="0 0 40 20"><defs><style>.cls-1{fill:none;}.cls-2{fill:#464646;}</style></defs><title>18+</title><g id="Layer_2" data-name="Layer 2"><g id="Layer_7_copy" data-name="Layer 7 copy"><rect class="cls-1" width="40" height="20"/><path class="cls-2" d="M10.143,18.358H7.618V8.217q0-1.815.086-2.879-.247.258-.606.57T4.686,7.884l-1.268-1.6L8.037,2.653h2.106Z"/><path class="cls-2" d="M19.564,2.449A5.561,5.561,0,0,1,23.1,3.475a3.32,3.32,0,0,1,1.3,2.744q0,2.418-2.9,3.846a7.474,7.474,0,0,1,2.627,1.944,3.661,3.661,0,0,1,.779,2.278A3.822,3.822,0,0,1,23.475,17.4a5.92,5.92,0,0,1-3.868,1.171,6.309,6.309,0,0,1-3.962-1.1,3.7,3.7,0,0,1-1.409-3.1,4,4,0,0,1,.737-2.358,6.158,6.158,0,0,1,2.412-1.864,6.059,6.059,0,0,1-2.053-1.815,3.9,3.9,0,0,1-.611-2.149,3.239,3.239,0,0,1,1.342-2.723A5.65,5.65,0,0,1,19.564,2.449Zm-2.91,11.838a2.082,2.082,0,0,0,.784,1.735,3.346,3.346,0,0,0,2.126.617A3.278,3.278,0,0,0,21.719,16a2.14,2.14,0,0,0,.767-1.735,2.222,2.222,0,0,0-.709-1.59,6.7,6.7,0,0,0-2.148-1.332l-.311-.139a5.522,5.522,0,0,0-2.041,1.369A2.6,2.6,0,0,0,16.654,14.287Zm2.889-9.894a2.655,2.655,0,0,0-1.729.532,1.761,1.761,0,0,0-.656,1.445,2.077,2.077,0,0,0,.237,1,2.6,2.6,0,0,0,.687.8,8.31,8.31,0,0,0,1.525.865,5.076,5.076,0,0,0,1.822-1.2,2.2,2.2,0,0,0,.532-1.466A1.757,1.757,0,0,0,21.3,4.925,2.719,2.719,0,0,0,19.543,4.393Z"/><path class="cls-2" d="M30.986,11.558H26.711V9.646h4.275V5.263H32.92V9.646h4.286v1.912H32.92V15.92H30.986Z"/></g></g></svg>