<svg xmlns="http://www.w3.org/2000/svg" width="34" height="17" viewBox="0 0 34 17">
    <g>
        <g>
            <path
                    d="M.442 4.178l.945 1.225c1.519-1.232 2.37-1.93 2.557-2.095.186-.164.354-.322.505-.473a38.056 38.056 0 0 0-.086 2.643V16.67h1.74V.966H4.599zm29.054 3.996V3.576h-1.494v4.598h-4.404v1.482h4.404v4.577h1.494V9.656h4.425V8.174zM16.433 15.37a3.032 3.032 0 0 1-1.8-.558c-.526-.372-.932-.877-1.22-1.515a4.975 4.975 0 0 1-.428-2.062c0-.501.159-.985.477-1.451.32-.464.747-.83 1.285-1.095a3.947 3.947 0 0 1 1.772-.398c1.038 0 1.819.298 2.342.892.522.595.784 1.41.784 2.449 0 1.21-.281 2.137-.843 2.777-.562.64-1.352.96-2.37.96zm-3.32-6.638h-.128c.086-2.248.573-3.898 1.46-4.947.888-1.048 2.175-1.574 3.857-1.574.709 0 1.339.09 1.89.269V.945C19.728.809 19.09.74 18.282.74c-2.35 0-4.123.765-5.323 2.293-1.2 1.53-1.8 3.838-1.8 6.924 0 2.178.477 3.877 1.429 5.098.952 1.22 2.242 1.83 3.868 1.83 1.518 0 2.722-.466 3.615-1.4.89-.935 1.337-2.22 1.337-3.852 0-1.461-.407-2.617-1.22-3.47-.813-.851-1.924-1.278-3.335-1.278-1.704 0-2.95.616-3.738 1.848z"/>
        </g>
    </g>
</svg>