<svg xmlns="http://www.w3.org/2000/svg" width="38" height="38" viewBox="0 0 38 38"><defs><style>.cls-1{fill:#fb6719;}.cls-2{fill:#fff;}</style></defs><title>Asset 161</title><g id="Layer_2" data-name="Layer 2"><g id="Layer_7_copy" data-name="Layer 7 copy"><circle class="cls-1" cx="19" cy="19" r="19"/><path class="cls-2" d="M19.573,19.037a4.4,4.4,0,0,0,3.808-4.614,4.4,4.4,0,0,0-4.614-3.808,3.969,3.969,0,0,0-3.663,4.4A4.017,4.017,0,0,0,19.573,19.037ZM18.93,13.09a1.751,1.751,0,0,1,.478,3.47,1.69,1.69,0,0,1-1.926-1.807A1.618,1.618,0,0,1,18.93,13.09ZM22.887,24.5a15.432,15.432,0,0,0-1.981-1.979,5.654,5.654,0,0,0,2.653-1.243.99.99,0,0,0,.311-.883,4.872,4.872,0,0,0-.5-.993h-.03l-.015-.029a.029.029,0,0,1-.029-.015,715224070329.189,715224070329.189,0,0,0-.06-.03.037.037,0,0,1-.03-.01c-.01-.005-.02-.005-.03-.02a.03.03,0,0,1-.03-.015l-.268-.074a.412.412,0,0,1-.134-.015c0,.007-2.1.8-2.273.843a5.438,5.438,0,0,1-3.067-.135c-.567-.2-1.327-.866-1.947-.693a1.753,1.753,0,0,0-.268.089.114.114,0,0,0-.06.03c-.7,0-.775,1.228-.547,1.656a2.382,2.382,0,0,0,1.292,1,7.186,7.186,0,0,1,1.487.572c-.026.1-.087.14-.161.214l-.387.373-.149.164c-.594.654-1.682,1.289-1.893,2.188a1.235,1.235,0,0,0,.831,1.44,1.82,1.82,0,0,0,1.668-.682c.519-.545,1.014-1.082,1.555-1.605l.089-.1a1.543,1.543,0,0,0,.239-.239c.076.021.141.127.194.179l.059.045a20.186,20.186,0,0,1,1.842,1.846,2.384,2.384,0,0,0,.644.5,1.209,1.209,0,0,0,1.645-1.5A2.418,2.418,0,0,0,22.887,24.5Z"/></g></g></svg>