<svg xmlns="http://www.w3.org/2000/svg" width="66.738" height="48" viewBox="0 0 66.738 48"><defs><style>.cls-1{fill:#f2f2f2;}</style></defs><title>Asset 145</title><g id="Layer_2" data-name="Layer 2"><g id="Layer_7_copy" data-name="Layer 7 copy"><path class="cls-1" d="M31.743,0l-.684,7.358Q13.174,11.3,13.177,22.075q0,3.081,5.732,6.674,5.648,3.594,5.647,8.9a9.856,9.856,0,0,1-2.994,7.528A11.008,11.008,0,0,1,13.69,48a13.209,13.209,0,0,1-9.711-3.979A14.055,14.055,0,0,1,0,33.626,30.827,30.827,0,0,1,8.128,12.065Q16.257,3.165,31.743,0Zm35,0-.684,7.358Q48.17,11.383,48.171,22.075q0,3.081,5.733,6.674,5.647,3.594,5.647,8.9A9.929,9.929,0,0,1,56.6,45.176,10.971,10.971,0,0,1,48.685,48a13.03,13.03,0,0,1-9.712-3.979,14.225,14.225,0,0,1-3.893-10.4q0-12.835,8.129-21.69T66.738,0Z"/></g></g></svg>