<svg xmlns="http://www.w3.org/2000/svg" width="38" height="38" viewBox="0 0 38 38"><defs><style>.cls-1{fill:#fff;}.cls-2{fill:#dcdcdc;}.cls-3{fill:#878787;}</style></defs><title>Asset 163</title><g id="Layer_2" data-name="Layer 2"><g id="Layer_7_copy" data-name="Layer 7 copy"><circle class="cls-1" cx="19" cy="19" r="18.5"/><path class="cls-2" d="M19,1A18,18,0,1,1,1,19,18.021,18.021,0,0,1,19,1m0-1A19,19,0,1,0,38,19,19,19,0,0,0,19,0Z"/><path class="cls-3" d="M22.857,16.327a9.089,9.089,0,0,1-2.571-.107,6.671,6.671,0,0,1,.214-2.357,6.717,6.717,0,0,1,2.357-.214V10.864l-.964-.108s-.039.093-.215.108h-2.25c-2.508.741-2.611,2.157-2.571,5.356a5.892,5.892,0,0,0-1.714.107v2.786h1.714v5.678a9.746,9.746,0,0,0,.108,2.678,11.9,11.9,0,0,0,3.321-.107V19.113a5.7,5.7,0,0,0,2.357-.215Q22.749,17.614,22.857,16.327Z"/></g></g></svg>