<svg xmlns="http://www.w3.org/2000/svg" width="38" height="38" viewBox="0 0 38 38"><defs><style>.cls-1{fill:#fff;}.cls-2{fill:#dcdcdc;}.cls-3{fill:#878787;}</style></defs><title>Asset 162</title><g id="Layer_2" data-name="Layer 2"><g id="Layer_7_copy" data-name="Layer 7 copy"><circle class="cls-1" cx="19" cy="19" r="18.5"/><path class="cls-2" d="M19,1A18,18,0,1,1,1,19,18.021,18.021,0,0,1,19,1m0-1A19,19,0,1,0,38,19,19,19,0,0,0,19,0Z"/><path class="cls-3" d="M22.756,25.053a8.089,8.089,0,0,1-1.08.337c-.225.063-.46-.04-.607.068H14.928a14.268,14.268,0,0,1-.068-2.295v-8.1a13.866,13.866,0,0,1,.068-2.226c2.762.135,6.622-.427,8.435.877a3.3,3.3,0,0,1,.81,2.767,2.964,2.964,0,0,1-1.552,1.957c.135.29.479.181.742.337a3.776,3.776,0,0,1,1.282,1.147,4.647,4.647,0,0,1,.338.81v.607C25.4,23.01,23.818,24.582,22.756,25.053Zm-2.025-7.828.068-.472a1.43,1.43,0,0,0-.068-.945c-.082-.158-.3-.26-.405-.4a17.308,17.308,0,0,0-2.159-.135v2.5C19.178,17.786,20.373,17.856,20.731,17.225ZM21.2,20.4c-.054-.013-1.062-.324-1.08-.338a7.117,7.117,0,0,0-1.957.068v2.9a8.353,8.353,0,0,0,2.564-.135c.365-.14.525-.473.81-.674a3.2,3.2,0,0,0,0-1.418C21.474,20.67,21.289,20.534,21.2,20.4Z"/></g></g></svg>