<svg xmlns="http://www.w3.org/2000/svg" width="38" height="38" viewBox="0 0 38 38"><defs><style>.cls-1{fill:#4e6e91;}.cls-2{fill:#fff;}</style></defs><title>Asset 159</title><g id="Layer_2" data-name="Layer 2"><g id="Layer_7_copy" data-name="Layer 7 copy"><circle class="cls-1" cx="19" cy="19" r="19"/><path class="cls-2" d="M22.756,25.053a8.392,8.392,0,0,1-1.08.337c-.225.063-.46-.04-.607.067H14.928a14.256,14.256,0,0,1-.068-2.294v-8.1a13.882,13.882,0,0,1,.068-2.227c2.762.136,6.622-.426,8.435.878a3.3,3.3,0,0,1,.81,2.766,2.959,2.959,0,0,1-1.552,1.957c.135.291.479.182.742.338a3.776,3.776,0,0,1,1.282,1.147,4.647,4.647,0,0,1,.338.81v.607C25.4,23.01,23.818,24.581,22.756,25.053Zm-2.025-7.828.068-.473a1.427,1.427,0,0,0-.068-.944c-.082-.158-.3-.26-.405-.4a17.308,17.308,0,0,0-2.159-.135v2.5C19.178,17.786,20.373,17.856,20.731,17.225ZM21.2,20.4c-.054-.012-1.062-.323-1.08-.337a7.159,7.159,0,0,0-1.957.067v2.9a8.353,8.353,0,0,0,2.564-.135c.365-.14.525-.473.81-.675a3.2,3.2,0,0,0,0-1.417C21.474,20.67,21.289,20.534,21.2,20.4Z"/></g></g></svg>