<svg xmlns="http://www.w3.org/2000/svg" width="38" height="38" viewBox="0 0 38 38"><defs><style>.cls-1{fill:#fff;}.cls-2{fill:#dcdcdc;}.cls-3{fill:#878787;}.cls-4{fill:none;}</style></defs><title>Asset 144</title><g id="Layer_2" data-name="Layer 2"><g id="Layer_7_copy" data-name="Layer 7 copy"><circle class="cls-1" cx="19" cy="19" r="18.5"/><path class="cls-2" d="M19,1A18,18,0,1,1,1,19,18.021,18.021,0,0,1,19,1m0-1A19,19,0,1,0,38,19,19,19,0,0,0,19,0Z"/><rect class="cls-3" x="25" y="17" width="2" height="2"/><path class="cls-3" d="M24.3,10.7v2.6H13.7V10.7H24.3M25,10H13v4H25V10Z"/><path class="cls-3" d="M27,15.7A1.3,1.3,0,0,1,28.3,17v6.3H25V20.013H13.006V23.3H9.7V17A1.3,1.3,0,0,1,11,15.7H27m0-.7H11a2,2,0,0,0-2,2v7h4.706V20.713H24.3V24H29V17a2,2,0,0,0-2-2Z"/><path class="cls-3" d="M24.3,20.7v6.6H13.7V20.7H24.3M25,20H13v8H25V20Z"/><rect class="cls-4" x="9" y="9" width="20" height="20"/></g></g></svg>