<svg xmlns="http://www.w3.org/2000/svg" width="66.738" height="48" viewBox="0 0 66.738 48"><defs><style>.cls-1{fill:#f2f2f2;}</style></defs><title>Asset 146</title><g id="Layer_2" data-name="Layer 2"><g id="Layer_7_copy" data-name="Layer 7 copy"><path class="cls-1" d="M34.995,48l.684-7.359q17.884-3.936,17.882-14.716,0-3.081-5.733-6.674-5.646-3.594-5.647-8.9a9.861,9.861,0,0,1,3-7.529A11.011,11.011,0,0,1,53.048,0a13.21,13.21,0,0,1,9.711,3.979,14.055,14.055,0,0,1,3.979,10.4A30.827,30.827,0,0,1,58.61,35.935Q50.482,44.835,34.995,48ZM0,48l.684-7.359q17.885-4.023,17.883-14.716,0-3.081-5.733-6.674-5.647-3.594-5.647-8.9a9.933,9.933,0,0,1,2.952-7.529A10.975,10.975,0,0,1,18.053,0a13.032,13.032,0,0,1,9.712,3.979,14.224,14.224,0,0,1,3.892,10.4q0,12.834-8.128,21.689T0,48Z"/></g></g></svg>