<svg xmlns="http://www.w3.org/2000/svg" width="20" height="20" viewBox="0 0 20 20"><defs><style>.cls-1{fill:#878787;fill-rule:evenodd;}.cls-2{fill:none;}</style></defs><title>autorization</title><g id="Layer_2" data-name="Layer 2"><g id="Layer_7_copy" data-name="Layer 7 copy"><path class="cls-1" d="M13.958,14.269a2.712,2.712,0,0,1-1.685-2.332v-.791c0-.157.212-.42.294-.55A9.458,9.458,0,0,0,13.7,8.47a7.106,7.106,0,0,0,.27-2.586,7.391,7.391,0,0,0-.579-2.82c-.379-.738-.927-.631-1.5-1-.04-.026-.055-.078-.084-.117a2.2,2.2,0,0,0-2.085-.669,3.98,3.98,0,0,0-2.876,1.9,6.209,6.209,0,0,0-.79,3.743,7.126,7.126,0,0,0,.365,1.84,16.841,16.841,0,0,0,.972,1.847c.054.107.276.341.276.461v.909a2.728,2.728,0,0,1-1.757,2.293c-1.671.6-2.574.583-3.234,1.731a10.416,10.416,0,0,0,7.447,2.75,10.628,10.628,0,0,0,7.2-2.5C16.65,14.906,15.742,14.9,13.958,14.269Z"/><rect class="cls-2" width="20" height="20"/></g></g></svg>