<svg xmlns="http://www.w3.org/2000/svg" width="20" height="20" viewBox="0 0 20 20"><defs><style>.cls-1,.cls-2{fill:none;}.cls-1{stroke:#878787;stroke-linecap:round;stroke-linejoin:round;stroke-width:0.85px;fill-rule:evenodd;}</style></defs><title>hert</title><g id="Layer_2" data-name="Layer 2"><g id="Layer_7_copy" data-name="Layer 7 copy"><path class="cls-1" d="M10,6.531A4.928,4.928,0,0,0,8.248,4.79a3.955,3.955,0,0,0-4.776.8,4.493,4.493,0,0,0,.012,5.6A43.124,43.124,0,0,0,10,17.667a43.085,43.085,0,0,0,6.517-6.481,4.493,4.493,0,0,0,.012-5.6,3.953,3.953,0,0,0-4.777-.8A4.726,4.726,0,0,0,10,6.531Z"/><rect class="cls-2" width="20" height="20"/></g></g></svg>