<svg xmlns="http://www.w3.org/2000/svg" width="20" height="20" viewBox="0 0 20 20"><defs><style>.cls-1{fill:#878787;}.cls-2{fill:none;}</style></defs><title>arr-repost</title><g id="Layer_2" data-name="Layer 2"><g id="Layer_7_copy" data-name="Layer 7 copy"><path class="cls-1" d="M12.174,3.172l6.6,6.328-6.6,6.328V12.214a.5.5,0,0,0-.322-.467,9.829,9.829,0,0,0-3.224-.513,9.889,9.889,0,0,0-2.735.379,16.166,16.166,0,0,0-4.385,1.979,11.281,11.281,0,0,1,3.7-4.276A11.1,11.1,0,0,1,11.461,7.21c.112,0,.176,0,.183,0h.029a.5.5,0,0,0,.5-.5V3.172M11.674,2V6.714s-.075,0-.213,0a11.614,11.614,0,0,0-6.544,2.2C.966,11.761.5,15,.5,15a13.677,13.677,0,0,1,5.531-2.906,9.371,9.371,0,0,1,2.6-.36,9.384,9.384,0,0,1,3.046.48V17L19.5,9.5,11.674,2Z"/><rect class="cls-2" width="20" height="20"/></g></g></svg>