<svg xmlns="http://www.w3.org/2000/svg" width="20" height="20" viewBox="0 0 20 20">
    <defs>
        <style>.cls-1{fill:#fff;}.cls-2{fill:none;}</style>
    </defs>
    <g id="Layer_2" data-name="Layer 2">
        <g id="Layer_7_copy" data-name="Layer 7 copy">
            <path class="cls-1"
                  d="M11.517,2.5a6.445,6.445,0,1,1,0,12.889H8.361a.5.5,0,0,0-.389.185,8.269,8.269,0,0,1-2.913,2.081c-.435.172-.857.312-1.245.424q.172-.178.355-.385a4.659,4.659,0,0,0,.95-3.032.5.5,0,0,0-.22-.357A6.431,6.431,0,0,1,8.483,2.5h3.034m0-.5H8.483a6.93,6.93,0,0,0-3.86,12.721,4.2,4.2,0,0,1-.829,2.642A7.761,7.761,0,0,1,1.93,19a14.729,14.729,0,0,0,3.313-.88,8.761,8.761,0,0,0,3.118-2.231h3.156A6.945,6.945,0,1,0,11.517,2Z"/>
            <rect class="cls-2" width="20" height="20"/>
        </g>
    </g>
</svg>