<svg xmlns="http://www.w3.org/2000/svg" width="40" height="20" viewBox="0 0 40 20"><defs><style>.cls-1{fill:#878787;}.cls-2{fill:none;}</style></defs><title>glassssss</title><g id="Layer_2" data-name="Layer 2"><g id="Layer_7_copy" data-name="Layer 7 copy"><path class="cls-1" d="M39.9,5.315a9.692,9.692,0,0,0-2.142-.665A24.759,24.759,0,0,0,32.4,4a31.084,31.084,0,0,0-5.722.426,17.57,17.57,0,0,0-2.851.731C22.914,5.5,21.884,6.27,21.334,6.5A3.93,3.93,0,0,1,20,6.624,3.936,3.936,0,0,1,18.665,6.5c-.549-.229-1.579-1-2.491-1.342a17.6,17.6,0,0,0-2.851-.731A31.084,31.084,0,0,0,7.6,4a24.759,24.759,0,0,0-5.363.65A9.692,9.692,0,0,0,.1,5.315,8.118,8.118,0,0,0,.175,8.2c.139.222.329.265.433.528A7.422,7.422,0,0,1,.914,9.841c.158.708.273,1.51.493,2.2a3.88,3.88,0,0,0,.4.949c1.014,1.5,3.316,2.255,4.934,2.612a18.33,18.33,0,0,0,7.192.081,5.627,5.627,0,0,0,1.819-.78c.811-.524,1.521-2.482,1.882-3.54.12-.42.239-.924.359-1.344.265-.43,1.066-.628,1.665-.732A1.425,1.425,0,0,1,20,9.274a1.425,1.425,0,0,1,.343.013c.6.1,1.4.3,1.665.732.119.42.239.924.358,1.344.362,1.058,1.072,3.016,1.883,3.54a5.627,5.627,0,0,0,1.819.78A18.331,18.331,0,0,0,33.26,15.6c1.618-.357,3.92-1.111,4.934-2.612a3.88,3.88,0,0,0,.4-.949c.22-.69.335-1.492.493-2.2a7.422,7.422,0,0,1,.306-1.111c.1-.263.294-.306.433-.528A8.118,8.118,0,0,0,39.9,5.315ZM17.16,10.073a14.434,14.434,0,0,1-.526,1.859,5.561,5.561,0,0,1-1.267,2.253,5.827,5.827,0,0,1-2.177.888,16.206,16.206,0,0,1-7.858-.634,4.818,4.818,0,0,1-2.514-1.585,4.246,4.246,0,0,1-.45-1.03,11.692,11.692,0,0,1-.5-2.71c-.034-.733-.18-2.369.426-2.877a3.784,3.784,0,0,1,1.575-.543A21.867,21.867,0,0,1,9.6,5.41a20.259,20.259,0,0,1,5.874,1.055A2.672,2.672,0,0,1,17.222,7.8,5.968,5.968,0,0,1,17.16,10.073Zm20.975-.959a11.745,11.745,0,0,1-.5,2.71,4.246,4.246,0,0,1-.45,1.03,4.818,4.818,0,0,1-2.514,1.585,16.206,16.206,0,0,1-7.858.634,5.82,5.82,0,0,1-2.177-.888,5.574,5.574,0,0,1-1.268-2.253,14.6,14.6,0,0,1-.525-1.859A5.968,5.968,0,0,1,22.778,7.8a2.67,2.67,0,0,1,1.753-1.332A20.259,20.259,0,0,1,30.405,5.41a21.87,21.87,0,0,1,5.729.284,3.789,3.789,0,0,1,1.575.543C38.315,6.745,38.169,8.381,38.135,9.114Z"/><rect class="cls-2" width="40" height="20"/></g></g></svg>