<svg xmlns="http://www.w3.org/2000/svg" width="38" height="38" viewBox="0 0 38 38">
    <g>
        <g>
            <path fill="#fff"
                  d="M19 37.5C8.799 37.5.5 29.201.5 19 .5 8.8 8.799.5 19 .5S37.5 8.8 37.5 19c0 10.201-8.299 18.5-18.5 18.5z"/>
        </g>
        <g>
            <path fill="#2e8b52"
                  d="M37 19c0 9.926-8.075 18-18 18S1 28.926 1 19C1 9.075 9.075 1 19 1s18 8.075 18 18zM0 19c0 10.494 8.507 19 19 19s19-8.506 19-19C38 8.507 29.493 0 19 0S0 8.507 0 19z"/>
        </g>
        <g>
            <path fill="#2e8b52"
                  d="M22.856 16.327c-.803.006-1.952.122-2.57-.106-.006-.86-.034-1.797.214-2.358.576-.237 1.491-.229 2.356-.214v-2.786l-.964-.106s-.039.092-.214.106h-2.25c-2.509.742-2.61 2.158-2.57 5.358-.574-.006-1.307-.046-1.715.106v2.786h1.714v5.678c0 .836-.13 2.027.107 2.678 1.006.005 2.514.191 3.321-.107v-8.249c.87.008 1.795.08 2.357-.215l.214-2.57z"/>
        </g>
    </g>
</svg>