<svg xmlns="http://www.w3.org/2000/svg" width="38" height="38" viewBox="0 0 38 38">
    <g>
        <g>
            <path fill="#fff"
                  d="M19 37.5C8.799 37.5.5 29.201.5 19 .5 8.8 8.799.5 19 .5S37.5 8.8 37.5 19c0 10.201-8.299 18.5-18.5 18.5z"/>
        </g>
        <g>
            <path fill="#dcdcdc"
                  d="M37 19c0 9.926-8.075 18-18 18S1 28.926 1 19C1 9.075 9.075 1 19 1s18 8.075 18 18zM0 19c0 10.494 8.507 19 19 19s19-8.506 19-19C38 8.507 29.493 0 19 0S0 8.507 0 19z"/>
        </g>
        <g>
            <path fill="#878787"
                  d="M21.676 25.39c-.225.063-.46-.04-.608.068h-6.14c-.12-.641-.068-1.543-.068-2.293v-8.1c0-.73-.049-1.605.068-2.226 2.762.134 6.622-.427 8.435.876.414.299 1.1 1.776.81 2.768-.256.879-.768 1.598-1.552 1.957.135.29.48.182.742.338.485.287.985.673 1.282 1.146.112.178.281.62.337.81v.608c.417 1.668-1.164 3.24-2.226 3.71-.33.148-.748.246-1.08.339zm-.877-8.637c.081-.27.066-.688-.068-.945-.082-.157-.299-.26-.405-.404a17.487 17.487 0 0 0-2.159-.136v2.497c1.012.022 2.206.092 2.564-.54zm-.675 3.306c-.6-.005-1.479-.104-1.957.067v2.902c.85.003 1.91.118 2.564-.134.365-.141.525-.474.81-.675.026-.386.186-1.052 0-1.418-.066-.132-.253-.267-.337-.405a36.519 36.519 0 0 1-1.08-.337z"/>
        </g>
    </g>
</svg>