<svg xmlns="http://www.w3.org/2000/svg" width="38" height="38" viewBox="0 0 38 38">
    <g>
        <g>
            <path fill="#fff"
                  d="M19 37.5C8.799 37.5.5 29.201.5 19 .5 8.8 8.799.5 19 .5S37.5 8.8 37.5 19c0 10.201-8.299 18.5-18.5 18.5z"/>
        </g>
        <g>
            <path fill="#2e8b52"
                  d="M37 19c0 9.926-8.075 18-18 18S1 28.926 1 19C1 9.075 9.075 1 19 1s18 8.075 18 18zM0 19c0 10.494 8.507 19 19 19s19-8.506 19-19C38 8.507 29.493 0 19 0S0 8.507 0 19z"/>
        </g>
        <g>
            <path fill="#2e8b52"
                  d="M19.574 19.037c-2.787.267-4.35-1.844-4.47-4.021-.113-2.045 1.048-4.151 3.664-4.401 2.205-.211 4.402 1.604 4.614 3.809.21 2.205-1.603 4.402-3.808 4.613zm-.644-5.946c-.983.136-1.44.889-1.448 1.663-.012.974.686 1.977 1.926 1.807.909-.125 1.622-1.066 1.497-1.975-.126-.908-1.067-1.621-1.975-1.495zM22.887 24.5c.262.258.53.527.652.874.157.444.023.977-.326 1.294-.348.317-.89.402-1.32.205-.246-.113-.447-.307-.643-.497-.6-.587-1.17-1.348-1.842-1.847l-.06-.045c-.052-.051-.116-.158-.193-.178-.048.083-.17.169-.24.238-.028.035-.058.069-.088.104-.541.523-1.036 1.06-1.554 1.605-.436.457-1.058.841-1.668.683-.595-.154-.971-.842-.831-1.44.21-.9 1.299-1.535 1.892-2.189l.15-.163.386-.373c.075-.075.135-.113.162-.215-.427-.293-1.004-.382-1.488-.572-.518-.202-1.03-.508-1.292-1-.227-.427-.156-1.656.547-1.656a.123.123 0 0 1 .06-.029c.09-.04.178-.065.268-.09.62-.173 1.38.495 1.947.693.98.343 2.06.381 3.067.135.177-.043 2.273-.836 2.273-.843.045.015.09.015.135.015l.268.074c.009.016.019.016.03.016.01.014.02.014.029.019.01.01.02.01.03.01.01.015.02.015.03.015.01.014.02.014.03.014.01.016.02.016.029.016l.016.029h.029c.183.369.43.666.498.993.053.259-.008.538-.311.883-.696.795-1.717.906-2.653 1.243.785.534 1.313 1.321 1.98 1.979z"/>
        </g>
    </g>
</svg>