<svg xmlns="http://www.w3.org/2000/svg" width="15" height="18" viewBox="0 0 15 18">
    <g>
        <g>
            <path
                  d="M11.4 13.582c-.853-.304-1.686-1.326-1.686-2.332v-.791c0-.157.212-.42.293-.551.421-.676.888-1.346 1.13-2.125.26-.835.327-1.717.27-2.586-.06-.922-.152-1.986-.579-2.82-.379-.738-.927-.631-1.497-1.004-.04-.026-.055-.078-.084-.117C8.8.655 7.991.495 7.163.588c-1.2.134-2.248.888-2.877 1.901-.688 1.107-.89 2.461-.789 3.743.048.619.154 1.255.364 1.84.237.658.658 1.227.973 1.847.053.107.275.341.275.462v.908c0 1.006-.905 1.989-1.757 2.293-1.67.595-2.573.584-3.234 1.73 1.59 1.657 4.33 2.75 7.447 2.75 2.961 0 5.582-.986 7.2-2.503-.674-1.34-1.582-1.342-3.366-1.977z"/>
        </g>
    </g>
</svg>