<svg xmlns="http://www.w3.org/2000/svg" width="41" height="13" viewBox="0 0 41 13">
    <g>
        <g>
            <path
                    d="M40.345 1.628c.168.61.098 2.292-.079 2.888-.139.22-.33.265-.433.527-.14.354-.223.74-.306 1.112-.157.707-.273 1.509-.493 2.199-.106.334-.225.69-.399.949-1.014 1.5-3.316 2.256-4.933 2.612-2.266.499-4.929.533-7.193.08-.65-.128-1.342-.47-1.819-.778-.81-.524-1.52-2.482-1.883-3.541-.119-.42-.239-.924-.358-1.344-.265-.43-1.066-.627-1.665-.732a1.376 1.376 0 0 0-.343-.012 1.378 1.378 0 0 0-.343.012c-.599.105-1.4.303-1.665.732-.12.42-.239.924-.358 1.344-.362 1.059-1.072 3.017-1.883 3.54-.477.31-1.169.65-1.818.78-2.266.452-4.929.418-7.194-.081-1.617-.356-3.918-1.111-4.933-2.612-.175-.26-.292-.615-.399-.95-.219-.69-.335-1.491-.493-2.198-.083-.372-.167-.758-.305-1.112-.105-.262-.294-.306-.434-.527C.44 3.92.37 2.238.538 1.628c.053-.15 1.601-.542 2.142-.665C4.42.569 6.26.317 8.043.313 9.947.31 11.884.39 13.764.74c.963.178 1.958.399 2.851.73.912.339 1.942 1.113 2.491 1.342.274.114.762.135 1.335.126.573.009 1.062-.012 1.334-.126.55-.23 1.58-1.003 2.492-1.341.894-.332 1.888-.553 2.852-.731C29 .39 30.935.31 32.84.314c1.783.003 3.622.255 5.363.649.54.123 2.088.516 2.142.665zM17.6 6.387c.103-.434.252-1.795.063-2.276-.286-.728-1.026-1.066-1.753-1.332-1.888-.695-3.882-.942-5.873-1.055-1.88-.11-4.053-.103-5.73.284-.584.135-1.18.21-1.575.542-.606.509-.46 2.145-.426 2.878.041.895.262 1.928.503 2.709.112.362.264.745.451 1.03.541.833 1.653 1.292 2.513 1.585 2.417.823 5.354 1.107 7.858.635.71-.135 1.708-.508 2.176-.89.608-.492.955-1.451 1.27-2.251.214-.547.376-1.234.523-1.86zm20.976-.96c.034-.732.181-2.368-.426-2.877-.394-.331-.99-.407-1.575-.542-1.677-.387-3.85-.393-5.729-.284-1.992.113-3.986.36-5.874 1.055-.726.266-1.466.604-1.752 1.332-.19.48-.04 1.842.062 2.276.148.625.31 1.312.524 1.859.315.8.662 1.759 1.27 2.252.468.38 1.466.754 2.176.889 2.504.472 5.44.188 7.857-.635.861-.293 1.972-.752 2.514-1.584.186-.286.34-.67.45-1.031.24-.781.462-1.814.503-2.71z"/>
        </g>
    </g>
</svg>